Coordinates
version=1
nRows=19
nColumns=34
inDegrees=no

Units are S.I. units (second, meters, Newtons, ...)
If the header above contains a line with 'inDegrees', this indicates whether rotational values are in degrees (yes) or radians (no).

endheader
time	pelvis_tilt	pelvis_list	pelvis_rotation	pelvis_tx	pelvis_ty	pelvis_tz	hip_flexion_r	hip_adduction_r	hip_rotation_r	knee_angle_r	ankle_angle_r	subtalar_angle_r	mtp_angle_r	hip_flexion_l	hip_adduction_l	hip_rotation_l	knee_angle_l	ankle_angle_l	subtalar_angle_l	mtp_angle_l	lumbar_extension	lumbar_bending	lumbar_rotation	arm_flex_r	arm_add_r	arm_rot_r	elbow_flex_r	pro_sup_r	arm_flex_l	arm_add_l	arm_rot_l	elbow_flex_l	pro_sup_l
6.73	-0.484961	0.0519163	0.0416859	-0.362417	0.610297	-0.60525	1.84112	-0.324951	0.116566	1.74611	0.609258	0.0713527	-0.126539	1.78183	-0.238961	-0.0137161	1.68734	0.536349	0.0169296	-0.126545	-0.502374	-0.00478269	-0.0787385	1.66881	-0.149802	0.47985	1.98551	1.90986	1.62492	-0.183029	0.420182	2.0474	1.66013
6.74	-0.484293	0.0517356	0.0421388	-0.362254	0.610497	-0.605518	1.83993	-0.32552	0.116923	1.74589	0.609356	0.0712181	-0.126539	1.7807	-0.238081	-0.013956	1.68721	0.536603	0.016543	-0.126545	-0.501346	-0.00444758	-0.0784895	1.66976	-0.149776	0.480117	1.98474	1.91181	1.62463	-0.182349	0.420318	2.04696	1.66008
6.75	-0.483701	0.0515284	0.0424245	-0.362084	0.610767	-0.605777	1.83856	-0.325802	0.117192	1.74543	0.609425	0.0708688	-0.126539	1.77952	-0.237272	-0.014085	1.68695	0.536798	0.016104	-0.126545	-0.50012	-0.00416066	-0.0781847	1.67068	-0.149613	0.480325	1.98403	1.91335	1.62442	-0.181676	0.420346	2.04655	1.66004
6.76	-0.483204	0.0513128	0.0425402	-0.361904	0.611106	-0.606023	1.83703	-0.325809	0.117376	1.74472	0.60951	0.0703553	-0.126539	1.77829	-0.236568	-0.0141268	1.68658	0.536949	0.0157001	-0.126545	-0.498646	-0.00394592	-0.0778552	1.67145	-0.149295	0.480489	1.98336	1.91446	1.62424	-0.181068	0.420302	2.04618	1.65995
6.77	-0.48281	0.0511107	0.0424976	-0.361709	0.611516	-0.606257	1.83533	-0.325579	0.11748	1.74376	0.609653	0.0697442	-0.126539	1.77701	-0.235998	-0.0141178	1.68608	0.537075	0.0154138	-0.126545	-0.496877	-0.00382345	-0.0775413	1.67196	-0.148798	0.480612	1.98267	1.91517	1.62403	-0.180589	0.42022	2.04586	1.65972
6.78	-0.48252	0.0509448	0.0423152	-0.361493	0.612003	-0.60648	1.83347	-0.325167	0.117505	1.74257	0.609883	0.0691084	-0.126539	1.77565	-0.235579	-0.0141046	1.68545	0.537206	0.0153082	-0.126545	-0.494778	-0.00380829	-0.0772858	1.67211	-0.148096	0.480682	1.98191	1.91559	1.62373	-0.180303	0.420125	2.04558	1.65927
6.79	-0.482311	0.0508334	0.0420132	-0.361251	0.612575	-0.606691	1.83144	-0.324639	0.117446	1.74115	0.61021	0.0685187	-0.126539	1.77415	-0.235325	-0.0141385	1.68468	0.53738	0.0154165	-0.126545	-0.492337	-0.0039091	-0.0771227	1.6718	-0.147164	0.480674	1.98098	1.91579	1.62329	-0.180253	0.42002	2.04528	1.65855
6.8	-0.482138	0.0507837	0.0416121	-0.360976	0.613243	-0.606893	1.82918	-0.324065	0.117286	1.73951	0.61063	0.0680384	-0.126539	1.77241	-0.235241	-0.0142662	1.68371	0.537648	0.0157379	-0.126545	-0.489575	-0.00412626	-0.0770596	1.67096	-0.146007	0.480543	1.97982	1.9158	1.62264	-0.180433	0.419875	2.04486	1.65759
6.81	-0.481934	0.0507849	0.0411309	-0.360661	0.614022	-0.607085	1.82663	-0.323515	0.11699	1.73764	0.61113	0.067717	-0.126539	1.77034	-0.235321	-0.014517	1.68251	0.538053	0.0162426	-0.126545	-0.486541	-0.00445063	-0.0770647	1.66955	-0.144679	0.480228	1.97834	1.91557	1.62175	-0.180768	0.419619	2.04415	1.65647
6.82	-0.481626	0.0508061	0.0405832	-0.360301	0.614929	-0.607267	1.8237	-0.323047	0.116507	1.73553	0.611695	0.0675811	-0.126539	1.76784	-0.235552	-0.0148917	1.68104	0.538623	0.016886	-0.126545	-0.483294	-0.00486332	-0.0770688	1.66755	-0.143274	0.479656	1.97646	1.91498	1.62053	-0.18113	0.419153	2.04292	1.65539
6.83	-0.48116	0.0508017	0.0399711	-0.35989	0.61598	-0.607436	1.82028	-0.322692	0.11577	1.73315	0.612315	0.0676279	-0.126539	1.76483	-0.235923	-0.0153616	1.67924	0.539362	0.0176227	-0.126545	-0.47987	-0.00533598	-0.0769823	1.66496	-0.141893	0.478762	1.97411	1.91387	1.61891	-0.181381	0.41836	2.04091	1.6546
6.84	-0.480518	0.0507218	0.0392875	-0.359425	0.617189	-0.607592	1.81631	-0.322452	0.114707	1.73045	0.612985	0.0678275	-0.126539	1.76129	-0.236423	-0.0158797	1.67709	0.54025	0.0184111	-0.126545	-0.476264	-0.00583011	-0.0767242	1.66175	-0.140609	0.477507	1.97117	1.91204	1.61682	-0.181425	0.417117	2.03786	1.65438
6.85	-0.479719	0.0505245	0.0385278	-0.358903	0.618567	-0.607734	1.81174	-0.322319	0.113265	1.72737	0.613704	0.0681337	-0.126539	1.75723	-0.237027	-0.0164007	1.67454	0.541254	0.0192043	-0.126545	-0.472429	-0.00629681	-0.0762511	1.65791	-0.139445	0.475886	1.96747	1.90939	1.61417	-0.18124	0.415313	2.03353	1.65505
6.86	-0.478806	0.0501856	0.0377047	-0.358323	0.620125	-0.607866	1.80654	-0.32229	0.111418	1.72383	0.614474	0.0684967	-0.126539	1.75265	-0.237678	-0.0168979	1.67153	0.542321	0.0199373	-0.126545	-0.468295	-0.00668052	-0.0755743	1.65344	-0.138376	0.473925	1.96282	1.90586	1.61088	-0.180882	0.412868	2.02772	1.65686
6.87	-0.477827	0.0497015	0.0368513	-0.357685	0.621874	-0.607995	1.80071	-0.322369	0.109173	1.71977	0.615289	0.0688667	-0.126539	1.74756	-0.238289	-0.0173712	1.668	0.543387	0.0205268	-0.126545	-0.46379	-0.00692909	-0.0747539	1.64834	-0.137356	0.471671	1.95699	1.90155	1.60689	-0.180467	0.409746	2.02026	1.65997
6.88	-0.476821	0.0490868	0.0360103	-0.356988	0.623824	-0.608126	1.79423	-0.322556	0.106569	1.7151	0.616136	0.0691887	-0.126539	1.74193	-0.238766	-0.0178422	1.6639	0.544385	0.0208831	-0.126545	-0.458865	-0.00700876	-0.073871	1.64264	-0.136337	0.469167	1.94972	1.89672	1.60219	-0.180143	0.405966	2.01099	1.66441
6.89	-0.475804	0.0483685	0.0352168	-0.356231	0.625986	-0.608262	1.78708	-0.322825	0.10366	1.70977	0.61698	0.0693957	-0.126539	1.73573	-0.239033	-0.0183442	1.65913	0.545255	0.0209289	-0.126545	-0.4535	-0.00691714	-0.0729938	1.63637	-0.135304	0.466432	1.9408	1.89175	1.5968	-0.180056	0.4016	1.99978	1.67003
6.9	-0.474768	0.0475812	0.0344854	-0.355414	0.628374	-0.608401	1.7792	-0.323113	0.100506	1.70374	0.617768	0.0694106	-0.126539	1.72889	-0.239052	-0.0189124	1.65366	0.54595	0.0206151	-0.126545	-0.447711	-0.00668583	-0.0721518	1.62955	-0.134278	0.463461	1.93001	1.88712	1.59075	-0.180303	0.396745	1.98649	1.67645
6.91	-0.473689	0.0467653	0.03381	-0.354534	0.630997	-0.608539	1.77057	-0.32333	0.0971695	1.69696	0.618434	0.0691568	-0.126539	1.72133	-0.238829	-0.0195836	1.64742	0.546442	0.0199307	-0.126545	-0.44153	-0.00637063	-0.071333	1.62219	-0.133313	0.460243	1.9172	1.88323	1.58404	-0.180921	0.391484	1.97105	1.68304
